<?xml version="1.0" encoding="utf-8"?>
<svg xmlns="http://www.w3.org/2000/svg"
	xmlns:xlink="http://www.w3.org/1999/xlink"
	width="20px" height="20px" viewBox="0 0 20 20">
<path fillRule="evenodd" d="M 4 8.67C 5.56 11.78 8.22 14.33 11.33 16 11.33 16 13.78 13.56 13.78 13.56 14.11 13.22 14.55 13.11 14.89 13.33 16.11 13.78 17.44 14 18.89 14 19.56 14 20 14.44 20 15.11 20 15.11 20 18.89 20 18.89 20 19.56 19.56 20 18.89 20 8.44 20-0 11.56-0 1.11-0 0.44 0.44-0 1.11-0 1.11-0 5-0 5-0 5.67-0 6.11 0.44 6.11 1.11 6.11 2.44 6.33 3.78 6.78 5.11 6.89 5.44 6.78 5.89 6.56 6.22 6.56 6.22 4 8.67 4 8.67Z" fill="rgb(19,89,187)"/></svg>